<mxfile host="app.diagrams.net" modified="2023-09-08T14:18:11.297Z" agent="Mozilla/5.0 (Windows NT 10.0; Win64; x64) AppleWebKit/537.36 (KHTML, like Gecko) Chrome/114.0.0.0 Safari/537.36 OPR/100.0.0.0" version="21.7.3" etag="g00vAzDHIT2cfRGvBqoj" type="github">
  <diagram name="PÃ¡gina-1" id="GiAo4Z6LFawHdF1f0Ea2">
    <mxGraphModel>
      <root>
        <mxCell id="0" />
        <mxCell id="1" parent="0" />
      </root>
    </mxGraphModel>
  </diagram>
</mxfile>
